<?xml version="1.0" encoding="UTF-8" standalone="no"?>
<!DOCTYPE svg PUBLIC "-//W3C//DTD SVG 1.1//EN" "http://www.w3.org/Graphics/SVG/1.1/DTD/svg11.dtd">
<svg width="100%" height="100%" viewBox="0 0 837 551" version="1.1" xmlns="http://www.w3.org/2000/svg" xmlns:xlink="http://www.w3.org/1999/xlink" xml:space="preserve" xmlns:serif="http://www.serif.com/" style="fill-rule:evenodd;clip-rule:evenodd;stroke-linecap:round;stroke-linejoin:round;">
    <g transform="matrix(1,0,0,1,-180.653,-162.201)">
        <g transform="matrix(1,0,0,1,1632.47,-501.92)">
            <g transform="matrix(1,0,0,1,-1502.63,624.14)">
                <g transform="matrix(0.988031,0,0,0.966092,-121.471,-113.605)">
                    <path d="M1020.05,164.688C1020.05,161.646 1017.64,159.177 1014.66,159.177L179.76,159.177C176.786,159.177 174.371,161.646 174.371,164.688L174.371,723.572C174.371,726.614 176.786,729.084 179.76,729.084L1014.66,729.084C1017.64,729.084 1020.05,726.614 1020.05,723.572L1020.05,164.688Z" style="fill:rgb(74,64,144);"/>
                    <clipPath id="_clip1">
                        <path d="M1020.05,164.688C1020.05,161.646 1017.64,159.177 1014.66,159.177L179.76,159.177C176.786,159.177 174.371,161.646 174.371,164.688L174.371,723.572C174.371,726.614 176.786,729.084 179.76,729.084L1014.66,729.084C1017.64,729.084 1020.05,726.614 1020.05,723.572L1020.05,164.688Z"/>
                    </clipPath>
                    <g clip-path="url(#_clip1)">
                        <g id="_-Rounded-Rectangle-" serif:id="(Rounded Rectangle)" transform="matrix(1.26812,0,0,1.0351,41.9375,26.2763)">
                            <path d="M236.85,406.879C236.85,404.634 235.395,402.81 233.603,402.81L102.854,402.81C101.062,402.81 99.607,404.634 99.607,406.879L99.607,427.579C99.607,429.825 101.062,431.648 102.854,431.648L233.603,431.648C235.395,431.648 236.85,429.825 236.85,427.579L236.85,406.879Z" style="fill:rgb(85,136,247);"/>
                        </g>
                        <g transform="matrix(1.08773,0,0,1.0351,44.4332,114.24)">
                            <path d="M891.078,137.762C891.078,135.054 889.032,132.856 886.513,132.856L602.87,132.856C600.351,132.856 598.305,135.054 598.305,137.762L598.305,595.834C598.305,598.542 600.351,600.741 602.87,600.741L886.513,600.741C889.032,600.741 891.078,598.542 891.078,595.834L891.078,137.762Z" style="fill:white;"/>
                            <clipPath id="_clip2">
                                <path d="M891.078,137.762C891.078,135.054 889.032,132.856 886.513,132.856L602.87,132.856C600.351,132.856 598.305,135.054 598.305,137.762L598.305,595.834C598.305,598.542 600.351,600.741 602.87,600.741L886.513,600.741C889.032,600.741 891.078,598.542 891.078,595.834L891.078,137.762Z"/>
                            </clipPath>
                            <g clip-path="url(#_clip2)">
                                <g id="_-Rounded-Rectangle-1" serif:id="(Rounded Rectangle)" transform="matrix(0.430635,0,0,1,775.72,148.019)">
                                    <path d="M236.85,406.879C236.85,404.634 232.911,402.81 228.058,402.81L108.398,402.81C103.546,402.81 99.607,404.634 99.607,406.879L99.607,427.579C99.607,429.825 103.546,431.648 108.398,431.648L228.058,431.648C232.911,431.648 236.85,429.825 236.85,427.579L236.85,406.879Z" style="fill:rgb(85,136,247);"/>
                                </g>
                                <g transform="matrix(0.974309,0,0,0.866813,36.5159,38.5777)">
                                    <path d="M862.102,247.987C862.102,247.069 861.485,246.323 860.725,246.323L592.557,246.323C591.797,246.323 591.18,247.069 591.18,247.987L591.18,253.114C591.18,254.032 591.797,254.778 592.557,254.778L860.725,254.778C861.485,254.778 862.102,254.032 862.102,253.114L862.102,247.987Z" style="fill:rgb(234,236,237);"/>
                                </g>
                                <g transform="matrix(0.974309,0,0,0.866813,36.5159,123.578)">
                                    <path d="M862.102,247.987C862.102,247.069 861.485,246.323 860.725,246.323L592.557,246.323C591.797,246.323 591.18,247.069 591.18,247.987L591.18,253.114C591.18,254.032 591.797,254.778 592.557,254.778L860.725,254.778C861.485,254.778 862.102,254.032 862.102,253.114L862.102,247.987Z" style="fill:rgb(234,236,237);"/>
                                </g>
                                <g transform="matrix(0.974309,0,0,0.866813,36.5159,103.578)">
                                    <path d="M862.102,247.987C862.102,247.069 861.485,246.323 860.725,246.323L592.557,246.323C591.797,246.323 591.18,247.069 591.18,247.987L591.18,253.114C591.18,254.032 591.797,254.778 592.557,254.778L860.725,254.778C861.485,254.778 862.102,254.032 862.102,253.114L862.102,247.987Z" style="fill:rgb(234,236,237);"/>
                                </g>
                                <g transform="matrix(0.974309,0,0,0.866813,36.5159,143.578)">
                                    <path d="M862.102,247.987C862.102,247.069 861.485,246.323 860.725,246.323L592.557,246.323C591.797,246.323 591.18,247.069 591.18,247.987L591.18,253.114C591.18,254.032 591.797,254.778 592.557,254.778L860.725,254.778C861.485,254.778 862.102,254.032 862.102,253.114L862.102,247.987Z" style="fill:rgb(234,236,237);"/>
                                </g>
                                <g transform="matrix(0.712262,0,0,0.866813,191.433,163.578)">
                                    <path d="M862.102,247.987C862.102,247.069 861.258,246.323 860.219,246.323L593.064,246.323C592.024,246.323 591.18,247.069 591.18,247.987L591.18,253.114C591.18,254.032 592.024,254.778 593.064,254.778L860.219,254.778C861.258,254.778 862.102,254.032 862.102,253.114L862.102,247.987Z" style="fill:rgb(234,236,237);"/>
                                </g>
                                <g transform="matrix(0.860444,0,0,0.911943,87.4065,-37.6539)">
                                    <path d="M823.083,216.216C823.083,215.096 822.187,214.186 821.082,214.186L611.752,214.186C610.647,214.186 609.75,215.096 609.75,216.216L609.75,225.88C609.75,227 610.647,227.909 611.752,227.909L821.082,227.909C822.187,227.909 823.083,227 823.083,225.88L823.083,216.216Z" style="fill:rgb(209,211,212);"/>
                                </g>
                                <g transform="matrix(0.930479,0,0,1,-165.262,129.825)">
                                    <g transform="matrix(0.900742,0,0,0.900742,164.611,8.53464)">
                                        <circle cx="763.111" cy="95.139" r="17.921" style="fill:rgb(222,107,145);"/>
                                    </g>
                                    <g transform="matrix(0.779255,0,0,0.779255,190.26,28.5357)">
                                        <text x="835.923px" y="92.172px" style="font-family:'OpenSans-Regular', 'Open Sans', sans-serif;font-size:20.532px;fill:white;">ER</text>
                                    </g>
                                </g>
                                <g>
                                    <g transform="matrix(0.767613,0,0,0.824966,701.606,-125.915)">
                                        <circle cx="197.204" cy="352.663" r="3.366" style="fill:rgb(143,143,143);"/>
                                    </g>
                                    <g transform="matrix(0.767613,0,0,0.824966,721.146,-125.915)">
                                        <circle cx="197.204" cy="352.663" r="3.366" style="fill:rgb(143,143,143);"/>
                                    </g>
                                    <g transform="matrix(0.767613,0,0,0.824966,711.842,-125.915)">
                                        <circle cx="197.204" cy="352.663" r="3.366" style="fill:rgb(143,143,143);"/>
                                    </g>
                                </g>
                            </g>
                        </g>
                        <g transform="matrix(1.17028,0,0,1.0351,-355.27,114.24)">
                            <path d="M891.078,138.135C891.078,135.221 889.032,132.856 886.513,132.856L602.87,132.856C600.351,132.856 598.305,135.221 598.305,138.135L598.305,595.462C598.305,598.375 600.351,600.741 602.87,600.741L886.513,600.741C889.032,600.741 891.078,598.375 891.078,595.462L891.078,138.135Z" style="fill:white;"/>
                            <clipPath id="_clip3">
                                <path d="M891.078,138.135C891.078,135.221 889.032,132.856 886.513,132.856L602.87,132.856C600.351,132.856 598.305,135.221 598.305,138.135L598.305,595.462C598.305,598.375 600.351,600.741 602.87,600.741L886.513,600.741C889.032,600.741 891.078,598.375 891.078,595.462L891.078,138.135Z"/>
                            </clipPath>
                            <g clip-path="url(#_clip3)">
                                <g transform="matrix(0.97928,0,0,0.866813,33.1177,38.5777)">
                                    <path d="M862.102,247.987C862.102,247.069 861.532,246.323 860.829,246.323L592.454,246.323C591.751,246.323 591.18,247.069 591.18,247.987L591.18,253.114C591.18,254.032 591.751,254.778 592.454,254.778L860.829,254.778C861.532,254.778 862.102,254.032 862.102,253.114L862.102,247.987Z" style="fill:rgb(234,236,237);"/>
                                </g>
                                <g transform="matrix(1.00951,0,0,0.911943,-3.48477,24.3461)">
                                    <path d="M823.083,216.216C823.083,215.096 822.373,214.186 821.498,214.186L611.336,214.186C610.461,214.186 609.75,215.096 609.75,216.216L609.75,225.88C609.75,227 610.461,227.909 611.336,227.909L821.498,227.909C822.373,227.909 823.083,227 823.083,225.88L823.083,216.216Z" style="fill:rgb(209,211,212);"/>
                                </g>
                                <g>
                                    <g transform="matrix(0.864851,0,0,1,-106.109,209.825)">
                                        <g transform="matrix(0.900742,0,0,0.900742,164.611,8.53464)">
                                            <circle cx="763.111" cy="95.139" r="17.921" style="fill:rgb(252,180,22);"/>
                                        </g>
                                        <g transform="matrix(0.779255,0,0,0.779255,190.26,28.5357)">
                                            <text x="835.923px" y="92.172px" style="font-family:'OpenSans-Regular', 'Open Sans', sans-serif;font-size:20.532px;fill:white;">K</text>
                                            <text x="848.936px" y="92.172px" style="font-family:'OpenSans-Regular', 'Open Sans', sans-serif;font-size:20.532px;fill:white;">T</text>
                                        </g>
                                    </g>
                                    <g transform="matrix(0.769139,0,0,0.911943,191.512,104.346)">
                                        <path d="M823.083,216.216C823.083,215.096 822.151,214.186 821.002,214.186L611.831,214.186C610.683,214.186 609.75,215.096 609.75,216.216L609.75,225.88C609.75,227 610.683,227.909 611.831,227.909L821.002,227.909C822.151,227.909 823.083,227 823.083,225.88L823.083,216.216Z" style="fill:rgb(209,211,212);"/>
                                    </g>
                                </g>
                                <g transform="matrix(1,0,0,1,0,50)">
                                    <g transform="matrix(0.864851,0,0,1,-106.109,209.825)">
                                        <g transform="matrix(0.900742,0,0,0.900742,164.611,8.53464)">
                                            <circle cx="763.111" cy="95.139" r="17.921" style="fill:rgb(252,180,22);"/>
                                        </g>
                                        <g transform="matrix(0.779255,0,0,0.779255,190.26,28.5357)">
                                            <text x="835.923px" y="92.172px" style="font-family:'OpenSans-Regular', 'Open Sans', sans-serif;font-size:20.532px;fill:white;">K</text>
                                            <text x="848.936px" y="92.172px" style="font-family:'OpenSans-Regular', 'Open Sans', sans-serif;font-size:20.532px;fill:white;">T</text>
                                        </g>
                                    </g>
                                    <g transform="matrix(0.769139,0,0,0.911943,191.512,104.346)">
                                        <path d="M823.083,216.216C823.083,215.096 822.151,214.186 821.002,214.186L611.831,214.186C610.683,214.186 609.75,215.096 609.75,216.216L609.75,225.88C609.75,227 610.683,227.909 611.831,227.909L821.002,227.909C822.151,227.909 823.083,227 823.083,225.88L823.083,216.216Z" style="fill:rgb(209,211,212);"/>
                                    </g>
                                </g>
                                <g transform="matrix(1,0,0,1,0,100)">
                                    <g transform="matrix(0.864851,0,0,1,-106.109,209.825)">
                                        <g transform="matrix(0.900742,0,0,0.900742,164.611,8.53464)">
                                            <circle cx="763.111" cy="95.139" r="17.921" style="fill:rgb(222,107,145);"/>
                                        </g>
                                        <g transform="matrix(0.779255,0,0,0.779255,190.26,28.5357)">
                                            <text x="835.923px" y="92.172px" style="font-family:'OpenSans-Regular', 'Open Sans', sans-serif;font-size:20.532px;fill:white;">ER</text>
                                        </g>
                                    </g>
                                    <g transform="matrix(0.769139,0,0,0.911943,191.512,104.346)">
                                        <path d="M823.083,216.216C823.083,215.096 822.151,214.186 821.002,214.186L611.831,214.186C610.683,214.186 609.75,215.096 609.75,216.216L609.75,225.88C609.75,227 610.683,227.909 611.831,227.909L821.002,227.909C822.151,227.909 823.083,227 823.083,225.88L823.083,216.216Z" style="fill:rgb(209,211,212);"/>
                                    </g>
                                </g>
                                <g transform="matrix(1,0,0,1,0,150)">
                                    <g transform="matrix(0.864851,0,0,1,-106.109,209.825)">
                                        <g transform="matrix(0.900742,0,0,0.900742,164.611,8.53464)">
                                            <circle cx="763.111" cy="95.139" r="17.921" style="fill:rgb(222,107,145);"/>
                                        </g>
                                        <g transform="matrix(0.779255,0,0,0.779255,190.26,28.5357)">
                                            <text x="835.923px" y="92.172px" style="font-family:'OpenSans-Regular', 'Open Sans', sans-serif;font-size:20.532px;fill:white;">ER</text>
                                        </g>
                                    </g>
                                    <g transform="matrix(0.769139,0,0,0.911943,191.512,104.346)">
                                        <path d="M823.083,216.216C823.083,215.096 822.151,214.186 821.002,214.186L611.831,214.186C610.683,214.186 609.75,215.096 609.75,216.216L609.75,225.88C609.75,227 610.683,227.909 611.831,227.909L821.002,227.909C822.151,227.909 823.083,227 823.083,225.88L823.083,216.216Z" style="fill:rgb(209,211,212);"/>
                                    </g>
                                </g>
                            </g>
                        </g>
                    </g>
                </g>
                <g transform="matrix(1,0,0,1,1.84797,-0.0193403)">
                    <g id="sidedbar">
                        <g transform="matrix(1,0,0,1,49,40)">
                            <path d="M10,36L113,36C114.105,36 115,36.895 115,38L115,58C115,59.105 114.105,60 113,60L10,60C8.895,60 8,59.105 8,58L8,38C8,36.895 8.895,36 10,36ZM124,36L144,36C145.105,36 146,36.895 146,38L146,58C146,59.105 145.105,60 144,60L124,60C122.895,60 122,59.105 122,58L122,38C122,36.895 122.895,36 124,36ZM62,96L131,96C132.105,96 133,96.895 133,98L133,102C133,103.105 132.105,104 131,104L62,104C60.895,104 60,103.105 60,102L60,98C60,96.895 60.895,96 62,96Z" style="fill:white;fill-opacity:0.298039;"/>
                        </g>
                        <g transform="matrix(1,0,0,1,49,30.6324)">
                            <path d="M62,128L100,128C101.105,128 102,128.895 102,130L102,134C102,135.105 101.105,136 100,136L62,136C60.895,136 60,135.105 60,134L60,130C60,128.895 60.895,128 62,128ZM62,152L113,152C114.105,152 115,152.895 115,154L115,158C115,159.105 114.105,160 113,160L62,160C60.895,160 60,159.105 60,158L60,154C60,152.895 60.895,152 62,152Z" style="fill:white;fill-opacity:0.0980392;"/>
                        </g>
                    </g>
                    <g id="header" transform="matrix(1,0,0,1,49,40)">
                        <path d="M228,50L508,50C509.105,50 510,50.895 510,52L510,60C510,61.105 509.105,62 508,62L228,62C226.895,62 226,61.105 226,60L226,52C226,50.895 226.895,50 228,50Z" style="fill:rgb(234,236,237);"/>
                        <g transform="matrix(1,0,0,1,178,44)">
                            <path d="M22.5,22.5L15.984,15.984" style="fill:none;stroke:rgb(234,236,237);stroke-width:3px;"/>
                            <g transform="matrix(0.768099,0,0,0.768099,3.34785,3.25819)">
                                <circle cx="9.931" cy="9.931" r="8.431" style="fill:white;stroke:rgb(234,236,237);stroke-width:3px;stroke-linecap:butt;stroke-linejoin:miter;"/>
                            </g>
                        </g>
                    </g>
                    <g id="mac-bar" serif:id="mac bar" transform="matrix(1,0,0,1,49,40)">
                        <path d="M6,0L830,0C833.314,0 836,2.686 836,6L836,28L0,28L0,6C0,2.686 2.686,0 6,0Z" style="fill:rgb(234,236,237);"/>
                        <path d="M16,20C20.293,20 22,17.314 22,14C22,10.686 19.526,8 16,8C12.474,8 10,10.686 10,14C10,17.314 11.707,20 16,20Z" style="fill:rgb(255,65,67);"/>
                        <path d="M34,20C37.314,20 40,17.314 40,14C40,10.686 37.314,8 34,8C30.686,8 28,9.435 28,14C28,18.565 30.686,20 34,20Z" style="fill:rgb(252,180,21);"/>
                        <path d="M52,20C55.314,20 58,18.444 58,14C58,9.556 56.357,8 52,8C47.643,8 46,10.686 46,14C46,17.314 48.686,20 52,20Z" style="fill:rgb(69,198,147);"/>
                    </g>
                    <g id="user" transform="matrix(1,0,0,1,-1,3)">
                        <g transform="matrix(1,0,0,1,-127.027,-3.39509)">
                            <g transform="matrix(0.900742,0,0,0.900742,164.611,8.53464)">
                                <circle cx="763.111" cy="95.139" r="17.921" style="fill:rgb(252,180,22);"/>
                            </g>
                            <g transform="matrix(0.779255,0,0,0.779255,190.26,28.5357)">
                                <text x="835.923px" y="92.172px" style="font-family:'OpenSans-Regular', 'Open Sans', sans-serif;font-size:20.532px;fill:white;">K</text>
                                <text x="848.936px" y="92.172px" style="font-family:'OpenSans-Regular', 'Open Sans', sans-serif;font-size:20.532px;fill:white;">T</text>
                            </g>
                        </g>
                        <g transform="matrix(1,0,0,1,-57.99,2.8298)">
                            <text x="807.276px" y="93.755px" style="font-family:'OpenSans-Regular', 'Open Sans', sans-serif;font-size:16px;fill:white;">Kenzo Ta<tspan x="874.948px " y="93.755px ">k</tspan>ahashi</text>
                        </g>
                    </g>
                </g>
                <g transform="matrix(1,0,0,1,-146.84,-122.22)">
                    <text x="386.361px" y="286.971px" style="font-family:'OpenSans-Regular', 'Open Sans', sans-serif;font-size:24px;fill:rgb(143,143,143);">We<tspan x="422.045px " y="286.971px ">b</tspan></text>
                </g>
                <g transform="matrix(0.824966,0,0,0.824966,-96.912,-78.9027)">
                    <circle cx="197.204" cy="352.663" r="3.366" style="fill:rgb(234,236,237);"/>
                </g>
                <g transform="matrix(1,0,0,1,-128.84,-119.22)">
                    <text x="208.396px" y="335.575px" style="font-family:'OpenSans-Regular', 'Open Sans', sans-serif;font-size:14px;fill:white;">ABC company</text>
                </g>
                <g transform="matrix(1,0,0,1,-108.84,-59.2199)">
                    <text x="208.396px" y="335.575px" style="font-family:'OpenSans-Regular', 'Open Sans', sans-serif;font-size:14px;fill:white;">iOS</text>
                </g>
                <g transform="matrix(1,0,0,1,-128.84,-89.2199)">
                    <text x="208.396px" y="335.575px" style="font-family:'OpenSans-Regular', 'Open Sans', sans-serif;font-size:14px;fill:white;">Engineering</text>
                </g>
                <g transform="matrix(1,0,0,1,-108.84,-31.2199)">
                    <text x="208.396px" y="335.575px" style="font-family:'OpenSans-Regular', 'Open Sans', sans-serif;font-size:14px;fill:white;">Andro<tspan x="248.598px " y="335.575px ">i</tspan>d</text>
                </g>
                <g transform="matrix(1,0,0,1,-108.84,-1.2199)">
                    <text x="208.396px" y="335.575px" style="font-family:'OpenSans-Regular', 'Open Sans', sans-serif;font-size:14px;fill:white;">We<tspan x="229.211px " y="335.575px ">b</tspan></text>
                </g>
                <g transform="matrix(1,0,0,1,-128.84,28.7801)">
                    <text x="208.396px" y="335.575px" style="font-family:'OpenSans-Regular', 'Open Sans', sans-serif;font-size:14px;fill:white;">Marke<tspan x="249.74px " y="335.575px ">t</tspan>ing</text>
                </g>
                <g transform="matrix(1,0,0,1,-128.84,58.7801)">
                    <text x="208.396px" y="335.575px" style="font-family:'OpenSans-Regular', 'Open Sans', sans-serif;font-size:14px;fill:white;">Sales</text>
                </g>
                <g transform="matrix(1,0,0,1,-128.84,88.7801)">
                    <text x="208.396px" y="335.575px" style="font-family:'OpenSans-Regular', 'Open Sans', sans-serif;font-size:14px;fill:white;">Design</text>
                </g>
                <g id="arrow" transform="matrix(0.26853,0,0,0.267028,62.7102,178.765)">
                    <g transform="matrix(0.707107,0.707107,-0.707107,0.707107,167.984,-110.805)">
                        <path d="M147.043,362.934C147.043,362.343 146.563,361.863 145.972,361.863L123.294,361.863C122.703,361.863 122.223,362.343 122.223,362.934L122.223,365.077C122.223,365.668 122.703,366.148 123.294,366.148L145.972,366.148C146.563,366.148 147.043,365.668 147.043,365.077L147.043,362.934Z" style="fill:white;"/>
                    </g>
                    <g transform="matrix(-0.707107,0.707107,-0.707107,-0.707107,372.934,403.976)">
                        <path d="M147.043,362.934C147.043,362.343 146.563,361.863 145.972,361.863L123.294,361.863C122.703,361.863 122.223,362.343 122.223,362.934L122.223,365.077C122.223,365.668 122.703,366.148 123.294,366.148L145.972,366.148C146.563,366.148 147.043,365.668 147.043,365.077L147.043,362.934Z" style="fill:white;"/>
                    </g>
                </g>
                <g id="arrow1" serif:id="arrow" transform="matrix(1.64427e-17,-0.26853,0.267028,1.63507e-17,22.6559,303.837)">
                    <g transform="matrix(0.707107,0.707107,-0.707107,0.707107,167.984,-110.805)">
                        <path d="M147.043,362.934C147.043,362.343 146.563,361.863 145.972,361.863L123.294,361.863C122.703,361.863 122.223,362.343 122.223,362.934L122.223,365.077C122.223,365.668 122.703,366.148 123.294,366.148L145.972,366.148C146.563,366.148 147.043,365.668 147.043,365.077L147.043,362.934Z" style="fill:white;"/>
                    </g>
                    <g transform="matrix(-0.707107,0.707107,-0.707107,-0.707107,372.934,403.976)">
                        <path d="M147.043,362.934C147.043,362.343 146.563,361.863 145.972,361.863L123.294,361.863C122.703,361.863 122.223,362.343 122.223,362.934L122.223,365.077C122.223,365.668 122.703,366.148 123.294,366.148L145.972,366.148C146.563,366.148 147.043,365.668 147.043,365.077L147.043,362.934Z" style="fill:white;"/>
                    </g>
                </g>
                <g id="arrow2" serif:id="arrow" transform="matrix(1.64427e-17,-0.26853,0.267028,1.63507e-17,0.85914,363.976)">
                    <g transform="matrix(0.707107,0.707107,-0.707107,0.707107,167.984,-110.805)">
                        <path d="M147.043,362.934C147.043,362.343 146.563,361.863 145.972,361.863L123.294,361.863C122.703,361.863 122.223,362.343 122.223,362.934L122.223,365.077C122.223,365.668 122.703,366.148 123.294,366.148L145.972,366.148C146.563,366.148 147.043,365.668 147.043,365.077L147.043,362.934Z" style="fill:white;"/>
                    </g>
                    <g transform="matrix(-0.707107,0.707107,-0.707107,-0.707107,372.934,403.976)">
                        <path d="M147.043,362.934C147.043,362.343 146.563,361.863 145.972,361.863L123.294,361.863C122.703,361.863 122.223,362.343 122.223,362.934L122.223,365.077C122.223,365.668 122.703,366.148 123.294,366.148L145.972,366.148C146.563,366.148 147.043,365.668 147.043,365.077L147.043,362.934Z" style="fill:white;"/>
                    </g>
                </g>
                <g id="arrow3" serif:id="arrow" transform="matrix(1.64427e-17,-0.26853,0.267028,1.63507e-17,0.85914,393.976)">
                    <g transform="matrix(0.707107,0.707107,-0.707107,0.707107,167.984,-110.805)">
                        <path d="M147.043,362.934C147.043,362.343 146.563,361.863 145.972,361.863L123.294,361.863C122.703,361.863 122.223,362.343 122.223,362.934L122.223,365.077C122.223,365.668 122.703,366.148 123.294,366.148L145.972,366.148C146.563,366.148 147.043,365.668 147.043,365.077L147.043,362.934Z" style="fill:white;"/>
                    </g>
                    <g transform="matrix(-0.707107,0.707107,-0.707107,-0.707107,372.934,403.976)">
                        <path d="M147.043,362.934C147.043,362.343 146.563,361.863 145.972,361.863L123.294,361.863C122.703,361.863 122.223,362.343 122.223,362.934L122.223,365.077C122.223,365.668 122.703,366.148 123.294,366.148L145.972,366.148C146.563,366.148 147.043,365.668 147.043,365.077L147.043,362.934Z" style="fill:white;"/>
                    </g>
                </g>
                <g id="arrow4" serif:id="arrow" transform="matrix(1.64427e-17,-0.26853,0.267028,1.63507e-17,0.85914,423.976)">
                    <g transform="matrix(0.707107,0.707107,-0.707107,0.707107,167.984,-110.805)">
                        <path d="M147.043,362.934C147.043,362.343 146.563,361.863 145.972,361.863L123.294,361.863C122.703,361.863 122.223,362.343 122.223,362.934L122.223,365.077C122.223,365.668 122.703,366.148 123.294,366.148L145.972,366.148C146.563,366.148 147.043,365.668 147.043,365.077L147.043,362.934Z" style="fill:white;"/>
                    </g>
                    <g transform="matrix(-0.707107,0.707107,-0.707107,-0.707107,372.934,403.976)">
                        <path d="M147.043,362.934C147.043,362.343 146.563,361.863 145.972,361.863L123.294,361.863C122.703,361.863 122.223,362.343 122.223,362.934L122.223,365.077C122.223,365.668 122.703,366.148 123.294,366.148L145.972,366.148C146.563,366.148 147.043,365.668 147.043,365.077L147.043,362.934Z" style="fill:white;"/>
                    </g>
                </g>
            </g>
        </g>
    </g>
</svg>
